<?xml version="1.0" encoding="UTF-8" standalone="no"?>
<!DOCTYPE svg PUBLIC "-//W3C//DTD SVG 1.1//EN"
 "http://www.w3.org/Graphics/SVG/1.1/DTD/svg11.dtd">
<!-- Generated by graphviz version 2.42.4 (0)
 -->
<!-- Title: release_flow Pages: 1 -->
<svg width="310pt" height="861pt"
 viewBox="0.00 0.00 309.70 861.20" xmlns="http://www.w3.org/2000/svg" xmlns:xlink="http://www.w3.org/1999/xlink">
<g id="graph0" class="graph" transform="scale(1 1) rotate(0) translate(21.6 839.6)">
<title>release_flow</title>
<polygon fill="white" stroke="transparent" points="-21.6,21.6 -21.6,-839.6 288.1,-839.6 288.1,21.6 -21.6,21.6"/>
<!-- git -->
<g id="node1" class="node">
<title>git</title>
<path fill="none" stroke="black" d="M152,-818C152,-818 54,-818 54,-818 48,-818 42,-812 42,-806 42,-806 42,-794 42,-794 42,-788 48,-782 54,-782 54,-782 152,-782 152,-782 158,-782 164,-788 164,-794 164,-794 164,-806 164,-806 164,-812 158,-818 152,-818"/>
<text text-anchor="middle" x="103" y="-797.5" font-family="Arial" font-size="10.00">Git commit / release tag</text>
</g>
<!-- jenkins -->
<g id="node2" class="node">
<title>jenkins</title>
<path fill="none" stroke="black" d="M151.5,-749C151.5,-749 54.5,-749 54.5,-749 48.5,-749 42.5,-743 42.5,-737 42.5,-737 42.5,-725 42.5,-725 42.5,-719 48.5,-713 54.5,-713 54.5,-713 151.5,-713 151.5,-713 157.5,-713 163.5,-719 163.5,-725 163.5,-725 163.5,-737 163.5,-737 163.5,-743 157.5,-749 151.5,-749"/>
<text text-anchor="middle" x="103" y="-728.5" font-family="Arial" font-size="10.00">Jenkins release pipeline</text>
</g>
<!-- git&#45;&gt;jenkins -->
<g id="edge1" class="edge">
<title>git&#45;&gt;jenkins</title>
<path fill="none" stroke="black" d="M103,-781.75C103,-775 103,-767.09 103,-759.59"/>
<polygon fill="black" stroke="black" points="106.5,-759.43 103,-749.43 99.5,-759.43 106.5,-759.43"/>
</g>
<!-- maven -->
<g id="node3" class="node">
<title>maven</title>
<path fill="none" stroke="black" d="M190.5,-680C190.5,-680 15.5,-680 15.5,-680 9.5,-680 3.5,-674 3.5,-668 3.5,-668 3.5,-656 3.5,-656 3.5,-650 9.5,-644 15.5,-644 15.5,-644 190.5,-644 190.5,-644 196.5,-644 202.5,-650 202.5,-656 202.5,-656 202.5,-668 202.5,-668 202.5,-674 196.5,-680 190.5,-680"/>
<text text-anchor="middle" x="103" y="-665" font-family="Arial" font-size="10.00">Maven clean deploy</text>
<text text-anchor="middle" x="103" y="-654" font-family="Arial" font-size="10.00">compile + unit + JAR smoke + integration</text>
</g>
<!-- jenkins&#45;&gt;maven -->
<g id="edge2" class="edge">
<title>jenkins&#45;&gt;maven</title>
<path fill="none" stroke="black" d="M103,-712.75C103,-706 103,-698.09 103,-690.59"/>
<polygon fill="black" stroke="black" points="106.5,-690.43 103,-680.43 99.5,-690.43 106.5,-690.43"/>
</g>
<!-- candidate -->
<g id="node4" class="node">
<title>candidate</title>
<path fill="none" stroke="black" d="M157,-611C157,-611 49,-611 49,-611 43,-611 37,-605 37,-599 37,-599 37,-587 37,-587 37,-581 43,-575 49,-575 49,-575 157,-575 157,-575 163,-575 169,-581 169,-587 169,-587 169,-599 169,-599 169,-605 163,-611 157,-611"/>
<text text-anchor="middle" x="103" y="-596" font-family="Arial" font-size="10.00">JFrog candidate repository</text>
<text text-anchor="middle" x="103" y="-585" font-family="Arial" font-size="10.00">immutable versioned JAR</text>
</g>
<!-- maven&#45;&gt;candidate -->
<g id="edge3" class="edge">
<title>maven&#45;&gt;candidate</title>
<path fill="none" stroke="black" d="M103,-643.75C103,-637 103,-629.09 103,-621.59"/>
<polygon fill="black" stroke="black" points="106.5,-621.43 103,-611.43 99.5,-621.43 106.5,-621.43"/>
</g>
<!-- sonar -->
<g id="node5" class="node">
<title>sonar</title>
<path fill="none" stroke="black" d="M150.5,-542C150.5,-542 55.5,-542 55.5,-542 49.5,-542 43.5,-536 43.5,-530 43.5,-530 43.5,-518 43.5,-518 43.5,-512 49.5,-506 55.5,-506 55.5,-506 150.5,-506 150.5,-506 156.5,-506 162.5,-512 162.5,-518 162.5,-518 162.5,-530 162.5,-530 162.5,-536 156.5,-542 150.5,-542"/>
<text text-anchor="middle" x="103" y="-521.5" font-family="Arial" font-size="10.00">SonarQube quality gate</text>
</g>
<!-- candidate&#45;&gt;sonar -->
<g id="edge4" class="edge">
<title>candidate&#45;&gt;sonar</title>
<path fill="none" stroke="black" d="M103,-574.75C103,-568 103,-560.09 103,-552.59"/>
<polygon fill="black" stroke="black" points="106.5,-552.43 103,-542.43 99.5,-552.43 106.5,-552.43"/>
</g>
<!-- qa_deploy -->
<g id="node6" class="node">
<title>qa_deploy</title>
<path fill="none" stroke="black" d="M145.5,-473C145.5,-473 60.5,-473 60.5,-473 54.5,-473 48.5,-467 48.5,-461 48.5,-461 48.5,-449 48.5,-449 48.5,-443 54.5,-437 60.5,-437 60.5,-437 145.5,-437 145.5,-437 151.5,-437 157.5,-443 157.5,-449 157.5,-449 157.5,-461 157.5,-461 157.5,-467 151.5,-473 145.5,-473"/>
<text text-anchor="middle" x="103" y="-452.5" font-family="Arial" font-size="10.00">Ansible deploy to QA</text>
</g>
<!-- sonar&#45;&gt;qa_deploy -->
<g id="edge5" class="edge">
<title>sonar&#45;&gt;qa_deploy</title>
<path fill="none" stroke="black" d="M103,-505.75C103,-499 103,-491.09 103,-483.59"/>
<polygon fill="black" stroke="black" points="106.5,-483.43 103,-473.43 99.5,-483.43 106.5,-483.43"/>
</g>
<!-- qa_sqa -->
<g id="node7" class="node">
<title>qa_sqa</title>
<path fill="none" stroke="black" d="M194,-404C194,-404 12,-404 12,-404 6,-404 0,-398 0,-392 0,-392 0,-375 0,-375 0,-369 6,-363 12,-363 12,-363 194,-363 194,-363 200,-363 206,-369 206,-375 206,-375 206,-392 206,-392 206,-398 200,-404 194,-404"/>
<text text-anchor="middle" x="103" y="-392" font-family="Arial" font-size="10.00">Unified QA / SQA stage</text>
<text text-anchor="middle" x="103" y="-381" font-family="Arial" font-size="10.00">Maven qualification + regression + approval</text>
<text text-anchor="middle" x="103" y="-370" font-family="Arial" font-size="10.00">exact Artifactory candidate</text>
</g>
<!-- qa_deploy&#45;&gt;qa_sqa -->
<g id="edge6" class="edge">
<title>qa_deploy&#45;&gt;qa_sqa</title>
<path fill="none" stroke="black" d="M103,-436.82C103,-430.02 103,-422.01 103,-414.32"/>
<polygon fill="black" stroke="black" points="106.5,-414.19 103,-404.19 99.5,-414.19 106.5,-414.19"/>
</g>
<!-- promote -->
<g id="node8" class="node">
<title>promote</title>
<path fill="none" stroke="black" d="M177.5,-330C177.5,-330 28.5,-330 28.5,-330 22.5,-330 16.5,-324 16.5,-318 16.5,-318 16.5,-306 16.5,-306 16.5,-300 22.5,-294 28.5,-294 28.5,-294 177.5,-294 177.5,-294 183.5,-294 189.5,-300 189.5,-306 189.5,-306 189.5,-318 189.5,-318 189.5,-324 183.5,-330 177.5,-330"/>
<text text-anchor="middle" x="103" y="-315" font-family="Arial" font-size="10.00">JFrog promotion</text>
<text text-anchor="middle" x="103" y="-304" font-family="Arial" font-size="10.00">copy same bytes to production repo</text>
</g>
<!-- qa_sqa&#45;&gt;promote -->
<g id="edge7" class="edge">
<title>qa_sqa&#45;&gt;promote</title>
<path fill="none" stroke="black" d="M103,-362.77C103,-355.79 103,-347.8 103,-340.3"/>
<polygon fill="black" stroke="black" points="106.5,-340.18 103,-330.18 99.5,-340.18 106.5,-340.18"/>
</g>
<!-- prod_deploy -->
<g id="node9" class="node">
<title>prod_deploy</title>
<path fill="none" stroke="black" d="M168.5,-261C168.5,-261 37.5,-261 37.5,-261 31.5,-261 25.5,-255 25.5,-249 25.5,-249 25.5,-237 25.5,-237 25.5,-231 31.5,-225 37.5,-225 37.5,-225 168.5,-225 168.5,-225 174.5,-225 180.5,-231 180.5,-237 180.5,-237 180.5,-249 180.5,-249 180.5,-255 174.5,-261 168.5,-261"/>
<text text-anchor="middle" x="103" y="-240.5" font-family="Arial" font-size="10.00">Ansible serial production deploy</text>
</g>
<!-- promote&#45;&gt;prod_deploy -->
<g id="edge8" class="edge">
<title>promote&#45;&gt;prod_deploy</title>
<path fill="none" stroke="black" d="M103,-293.75C103,-287 103,-279.09 103,-271.59"/>
<polygon fill="black" stroke="black" points="106.5,-271.43 103,-261.43 99.5,-271.43 106.5,-271.43"/>
</g>
<!-- verify -->
<g id="node10" class="node">
<title>verify</title>
<path fill="none" stroke="black" d="M158.5,-192C158.5,-192 47.5,-192 47.5,-192 41.5,-192 35.5,-186 35.5,-180 35.5,-180 35.5,-168 35.5,-168 35.5,-162 41.5,-156 47.5,-156 47.5,-156 158.5,-156 158.5,-156 164.5,-156 170.5,-162 170.5,-168 170.5,-168 170.5,-180 170.5,-180 170.5,-186 164.5,-192 158.5,-192"/>
<text text-anchor="middle" x="103" y="-171.5" font-family="Arial" font-size="10.00">Production&#45;safe verification</text>
</g>
<!-- prod_deploy&#45;&gt;verify -->
<g id="edge9" class="edge">
<title>prod_deploy&#45;&gt;verify</title>
<path fill="none" stroke="black" d="M103,-224.75C103,-218 103,-210.09 103,-202.59"/>
<polygon fill="black" stroke="black" points="106.5,-202.43 103,-192.43 99.5,-202.43 106.5,-202.43"/>
</g>
<!-- done -->
<g id="node11" class="node">
<title>done</title>
<path fill="none" stroke="black" d="M118.5,-36C118.5,-36 47.5,-36 47.5,-36 41.5,-36 35.5,-30 35.5,-24 35.5,-24 35.5,-12 35.5,-12 35.5,-6 41.5,0 47.5,0 47.5,0 118.5,0 118.5,0 124.5,0 130.5,-6 130.5,-12 130.5,-12 130.5,-24 130.5,-24 130.5,-30 124.5,-36 118.5,-36"/>
<text text-anchor="middle" x="83" y="-15.5" font-family="Arial" font-size="10.00">Release complete</text>
</g>
<!-- verify&#45;&gt;done -->
<g id="edge10" class="edge">
<title>verify&#45;&gt;done</title>
<path fill="none" stroke="black" d="M97.28,-155.92C93.65,-144.26 89.22,-128.37 87,-114 83.5,-91.39 82.62,-65.42 82.55,-46.36"/>
<polygon fill="black" stroke="black" points="86.05,-46.29 82.58,-36.27 79.05,-46.26 86.05,-46.29"/>
</g>
<!-- rollback -->
<g id="node12" class="node">
<title>rollback</title>
<path fill="none" stroke="black" d="M254.5,-114C254.5,-114 111.5,-114 111.5,-114 105.5,-114 99.5,-108 99.5,-102 99.5,-102 99.5,-90 99.5,-90 99.5,-84 105.5,-78 111.5,-78 111.5,-78 254.5,-78 254.5,-78 260.5,-78 266.5,-84 266.5,-90 266.5,-90 266.5,-102 266.5,-102 266.5,-108 260.5,-114 254.5,-114"/>
<text text-anchor="middle" x="183" y="-99" font-family="Arial" font-size="10.00">Rollback</text>
<text text-anchor="middle" x="183" y="-88" font-family="Arial" font-size="10.00">previous/approved production JAR</text>
</g>
<!-- verify&#45;&gt;rollback -->
<g id="edge11" class="edge">
<title>verify&#45;&gt;rollback</title>
<path fill="none" stroke="black" d="M121.15,-155.75C131.89,-145.55 145.66,-132.47 157.48,-121.24"/>
<polygon fill="black" stroke="black" points="160.08,-123.6 164.92,-114.18 155.26,-118.53 160.08,-123.6"/>
<text text-anchor="middle" x="160" y="-132.8" font-family="Arial" font-size="9.00">failure</text>
</g>
<!-- rollback&#45;&gt;done -->
<g id="edge12" class="edge">
<title>rollback&#45;&gt;done</title>
<path fill="none" stroke="black" d="M160.31,-77.75C146.5,-67.26 128.68,-53.72 113.63,-42.28"/>
<polygon fill="black" stroke="black" points="115.68,-39.44 105.6,-36.18 111.45,-45.01 115.68,-39.44"/>
<text text-anchor="middle" x="155" y="-54.8" font-family="Arial" font-size="9.00">restored</text>
</g>
</g>
</svg>
